<?xml version="1.0" encoding="UTF-8"?>
<svg width="36px" height="36px" viewBox="0 0 36 36" version="1.1" xmlns="http://www.w3.org/2000/svg" xmlns:xlink="http://www.w3.org/1999/xlink">
    <!-- Generator: Sketch 48.1 (47250) - http://www.bohemiancoding.com/sketch -->
    <title>Group 9 Copy 2</title>
    <desc>Created with Sketch.</desc>
    <defs></defs>
    <g id="Dashborad" stroke="none" stroke-width="1" fill="none" fill-rule="evenodd" transform="translate(-22.000000, -403.000000)">
        <g id="Group-9-Copy-2" transform="translate(22.000000, 403.000000)">
            <ellipse id="Oval-5" fill="#FFFFFF" cx="17.8651479" cy="18" rx="17.8651479" ry="18"></ellipse>
            <ellipse id="Oval-6" stroke="#23292F" stroke-width="0.5" cx="17.8651479" cy="18" rx="10.7190887" ry="10.8"></ellipse>
            <path d="M17.7370861,33.3447376 C18.8211379,32.8558323 19.6037605,31.1792947 20.0361778,28.2978975 C20.1233501,27.7170284 20.2141497,27.1751036 20.3505322,26.4033893 C20.3694595,26.2962901 20.4716132,25.7212445 20.5004162,25.5578297 C21.2727251,21.176102 21.4233157,18.0495566 20.8699706,11.345565 C20.3343905,4.85680472 19.2702142,1.55604276 17.8457366,1.4525142 C16.3841926,2.41479613 15.4590968,4.62967767 15.0999482,8.11065744 C14.3725453,15.1608724 14.3150758,18.6276972 15.0996416,25.4715269 C15.6824548,30.5554536 16.6121091,33.1863972 17.7370861,33.3447376 Z" id="Rectangle" stroke="#23292F" stroke-width="0.5"></path>
            <path d="M17.7370861,33.3447376 C18.8211379,32.8558323 19.6037605,31.1792947 20.0361778,28.2978975 C20.1233501,27.7170284 20.2141497,27.1751036 20.3505322,26.4033893 C20.3694595,26.2962901 20.4716132,25.7212445 20.5004162,25.5578297 C21.2727251,21.176102 21.4233157,18.0495566 20.8699706,11.345565 C20.3343905,4.85680472 19.2702142,1.55604276 17.8457366,1.4525142 C16.3841926,2.41479613 15.4590968,4.62967767 15.0999482,8.11065744 C14.3725453,15.1608724 14.3150758,18.6276972 15.0996416,25.4715269 C15.6824548,30.5554536 16.6121091,33.1863972 17.7370861,33.3447376 Z" id="Rectangle-Copy" stroke="#23292F" stroke-width="0.5" transform="translate(17.865148, 17.400000) rotate(-60.000000) translate(-17.865148, -17.400000) "></path>
            <path d="M17.7370861,33.3447376 C18.8211379,32.8558323 19.6037605,31.1792947 20.0361778,28.2978975 C20.1233501,27.7170284 20.2141497,27.1751036 20.3505322,26.4033893 C20.3694595,26.2962901 20.4716132,25.7212445 20.5004162,25.5578297 C21.2727251,21.176102 21.4233157,18.0495566 20.8699706,11.345565 C20.3343905,4.85680472 19.2702142,1.55604276 17.8457366,1.4525142 C16.3841926,2.41479613 15.4590968,4.62967767 15.0999482,8.11065744 C14.3725453,15.1608724 14.3150758,18.6276972 15.0996416,25.4715269 C15.6824548,30.5554536 16.6121091,33.1863972 17.7370861,33.3447376 Z" id="Rectangle-Copy-2" stroke="#23292F" stroke-width="0.5" transform="translate(17.865148, 17.400000) rotate(-300.000000) translate(-17.865148, -17.400000) "></path>
            <ellipse id="Oval-7" fill="#23292F" cx="18.4606528" cy="18.6" rx="1.78651479" ry="1.8"></ellipse>
            <ellipse id="Oval-7-Copy" fill="#23292F" cx="7.14605916" cy="14.4" rx="1.19100986" ry="1.2"></ellipse>
            <ellipse id="Oval-7-Copy-2" fill="#23292F" cx="15.4831282" cy="27.6" rx="1.19100986" ry="1.2"></ellipse>
            <ellipse id="Oval-7-Copy-3" fill="#23292F" cx="25.0112071" cy="9.6" rx="1.19100986" ry="1.2"></ellipse>
        </g>
    </g>
</svg>