<?xml version="1.0" encoding="utf-8"?>
<svg width="37px" height="37px" viewBox="0 0 37 37" version="1.1" xmlns:xlink="http://www.w3.org/1999/xlink" xmlns="http://www.w3.org/2000/svg">
  <g id="Group-11" transform="translate(0.5 0.5)">
    <g id="Group-2-Copy-56">
      <path d="M17.8651 36C27.7318 36 35.7303 27.9411 35.7303 18C35.7303 8.05887 27.7318 0 17.8651 0C7.9985 0 0 8.05887 0 18C0 27.9411 7.9985 36 17.8651 36Z" id="Oval-5-Copy-2" fill="#FFFFFF" fill-rule="evenodd" stroke="#EEEEEE" stroke-width="1" />
    </g>
    <g id="binance-coin-bnb-logo-copy" transform="translate(6 6)">
      <path d="M7.33901 10.085L12 5.424L16.6632 10.087L19.3752 7.37501L12 0L4.6272 7.3728L7.3391 10.0848L7.33901 10.085ZM0 12L2.7121 9.28752L5.424 11.9994L2.7119 14.7115L0 12ZM7.33901 13.9153L12 18.576L16.6631 13.9131L19.3765 16.6236L19.3752 16.6251L12 24L4.6272 16.6272L4.62336 16.6234L7.3393 13.915L7.33901 13.9153ZM18.576 12.0012L21.2881 9.28906L24 12.001L21.288 14.7131L18.576 12.0012Z" id="Shape" fill="#23292F" stroke="none" />
      <path d="M5.99707 2.99843L5.99833 2.99843L3.00005 0L0.783878 2.21551L0.783878 2.21551L0.529279 2.47021L0.00418403 2.9954L0 2.99948L0.00418403 3.00377L3.00005 6L5.99854 3.00157L6 2.9999L5.99728 2.99843" transform="translate(9 9)" id="Shape" fill="#23292F" fill-rule="evenodd" stroke="none" />
    </g>
  </g>
</svg>