<?xml version="1.0" encoding="UTF-8"?>
<svg width="36px" height="36px" viewBox="0 0 36 36" version="1.1" xmlns="http://www.w3.org/2000/svg" xmlns:xlink="http://www.w3.org/1999/xlink">
    <!-- Generator: Sketch 48.1 (47250) - http://www.bohemiancoding.com/sketch -->
    <title>Group 2 Copy 3</title>
    <desc>Created with Sketch.</desc>
    <defs></defs>
    <g id="Dashborad" stroke="none" stroke-width="1" fill="none" fill-rule="evenodd" transform="translate(-22.000000, -189.000000)">
        <g id="Group-2-Copy-3" transform="translate(22.000000, 189.000000)">
            <ellipse id="Oval-5-Copy-2" fill="#FFFFFF" cx="17.8651479" cy="18" rx="17.8651479" ry="18"></ellipse>
            <path d="M24.1627807,21.7362122 C23.4867694,21.7027634 22.7279637,21.5401063 21.8863636,21.2482411 C21.8656817,21.2353307 21.8449188,21.2225467 21.8240749,21.2098891 L23.8481056,9.52941176 L26.6390374,9.66461714 L24.1627807,21.7362122 Z M23.7625746,23.6871917 L23.1167184,26.8356998 L20.3793489,26.8356998 L19.1060175,22.7632856 C19.8124608,22.8079336 20.4886332,22.8998221 21.1345348,23.0389511 L21.6117577,24.5382647 L21.6392681,23.1588907 C21.7221574,23.1804767 21.8045226,23.2028807 21.8863636,23.2261026 C22.5117673,23.4701024 23.1371709,23.6237988 23.7625746,23.6871917 Z M18.3421906,20.2627117 L17.9263815,18.7286587 L17.5210168,20.2758587 C16.8929878,20.3134728 16.3060471,20.4152091 15.7601948,20.5810674 L17.2746268,15.401339 L18.7321872,15.401339 L20.3541583,20.5648798 C19.7357247,20.3826594 19.0650688,20.2819367 18.3421906,20.2627117 Z M16.7964643,22.7824428 L15.5919149,26.8356998 L12.9493461,26.8356998 L12.3325632,23.7145221 C13.0444552,23.6821019 13.694296,23.5192954 14.2820856,23.2261026 C14.3802841,23.1982393 14.4792372,23.1715537 14.5789449,23.1460456 L14.6557582,24.5382647 L15.0672401,23.0318203 C15.6214346,22.9140281 16.1978427,22.8309023 16.7964643,22.7824428 Z M11.9426382,21.7413399 L9.52941176,9.52941176 L11.956309,9.52941176 L14.4426863,21.151475 C14.3886208,21.1829002 14.3350872,21.2151555 14.2820856,21.2482411 C13.5699566,21.5778847 12.8306518,21.7427065 12.0641711,21.7427065 C12.0238769,21.7427065 11.983366,21.742251 11.9426382,21.7413399 Z" id="Combined-Shape-Copy" fill="#23292F"></path>
        </g>
    </g>
</svg>