<?xml version="1.0" encoding="UTF-8"?>
<svg width="52px" height="13px" viewBox="0 0 52 13" version="1.1" xmlns="http://www.w3.org/2000/svg" xmlns:xlink="http://www.w3.org/1999/xlink">
    <!-- Generator: Sketch 48.1 (47250) - http://www.bohemiancoding.com/sketch -->
    <title>Group 20</title>
    <desc>Created with Sketch.</desc>
    <defs></defs>
    <g id="单个rToken" stroke="none" stroke-width="1" fill="none" fill-rule="evenodd" transform="translate(-14.000000, -19.000000)">
        <g id="Group-20" transform="translate(14.000000, 15.000000)">
            <path d="M8.42285022,12.307241 C8.03731668,12.285431 7.60543093,12.1891263 7.12719298,12.0183271 C7.11150934,12.0082447 7.09574494,11.9982922 7.07989978,11.9884694 L8.25867861,5.26315789 L9.86842105,5.34025493 L8.42285022,12.307241 Z M8.18280473,13.4641498 L7.83683204,15.1315789 L6.2579831,15.1315789 L5.55872378,12.9205962 C5.96805855,12.9489323 6.3596854,13.0057276 6.73360434,13.0909819 L6.96880687,13.8215316 L6.98230186,13.1525808 C7.03091128,13.1655982 7.07920832,13.1791176 7.12719298,13.1931391 C7.47906356,13.3345157 7.83093415,13.4248526 8.18280473,13.4641498 Z M5.09665671,11.4333331 L4.84317041,10.5087682 L4.59596156,11.4415953 C4.23165083,11.4650492 3.89138929,11.5271536 3.57517692,11.6279085 L4.46725399,8.61145823 L5.30793979,8.61145823 L6.26337797,11.6185293 C5.90505838,11.5076387 5.5161513,11.4459067 5.09665671,11.4333331 Z M4.15774351,12.9324936 L3.49670615,15.1315789 L1.97253596,15.1315789 L1.64279713,13.4819251 C2.0432324,13.4598684 2.40937605,13.3636065 2.74122807,13.1931391 C2.79999535,13.1759668 2.85923117,13.1595476 2.91893554,13.1438814 L2.95675348,13.8215316 L3.16017908,13.085249 C3.47981598,13.0136232 3.81233745,12.9627047 4.15774351,12.9324936 Z M1.40886082,12.3115626 L0,5.26315789 L1.39977604,5.26315789 L2.84738072,11.9527981 C2.81159471,11.9739954 2.7762105,11.9958384 2.74122807,12.0183271 C2.33048919,12.2141291 1.90407594,12.3120301 1.4619883,12.3120301 C1.44435115,12.3120301 1.42664199,12.3118743 1.40886082,12.3115626 Z" id="Combined-Shape" fill="#00F3AB"></path>
            <g id="Group-3" transform="translate(16.447368, 0.000000)" fill="#FFFFFF" font-family="Helvetica" font-size="15.2046784" font-weight="normal" letter-spacing="0.162907229">
                <text id="StaFi">
                    <tspan x="0.365497076" y="15.3654971">StaFi</tspan>
                </text>
            </g>
        </g>
    </g>
</svg>