<?xml version="1.0" encoding="utf-8"?>
<svg width="37px" height="37px" viewBox="0 0 37 37" version="1.1" xmlns:xlink="http://www.w3.org/1999/xlink" xmlns="http://www.w3.org/2000/svg">
  <g id="Group-5-Copy-37" transform="translate(0.2514038 0.25146484)">
    <path d="M17.965 36C27.8867 36 35.9299 27.9411 35.9299 18C35.9299 8.05887 27.8867 0 17.965 0C8.04318 0 0 8.05887 0 18C0 27.9411 8.04318 36 17.965 36Z" id="Oval-5-Copy" fill="#00F3AB" fill-rule="evenodd" stroke="none" />
    <path d="M17.6579 5.98237C17.2262 5.73398 16.6649 5.73398 16.1901 5.98237L12.8225 7.88679L10.5343 9.12881L7.16681 11.0332C6.73506 11.2816 6.17382 11.2816 5.6989 11.0332L3.02214 9.54281C2.59042 9.29442 2.28821 8.839 2.28821 8.34217L2.28821 5.40276C2.28821 4.90597 2.54725 4.45055 3.02214 4.20215L5.65573 2.75312C6.08745 2.50472 6.64871 2.50472 7.12364 2.75312L9.7572 4.20215C10.1889 4.45055 10.4912 4.90597 10.4912 5.40276L10.4912 7.30718L12.7793 6.02375L12.7793 4.11933C12.7793 3.62254 12.5203 3.16712 12.0454 2.91873L7.16681 0.186297C6.73506 -0.0620991 6.17382 -0.0620991 5.6989 0.186297L0.733957 2.91873C0.259031 3.16712 0 3.62254 0 4.11933L0 9.6256C0 10.1224 0.259031 10.5778 0.733957 10.8262L5.6989 13.5586C6.13065 13.8071 6.69189 13.8071 7.16681 13.5586L10.5343 11.6956L12.8225 10.4122L16.1901 8.54919C16.6218 8.3008 17.183 8.3008 17.6579 8.54919L20.2915 9.99819C20.7232 10.2466 21.0255 10.702 21.0255 11.1988L21.0255 14.1382C21.0255 14.6351 20.7664 15.0905 20.2915 15.3389L17.6579 16.8293C17.2262 17.0777 16.6649 17.0777 16.1901 16.8293L13.5565 15.3803C13.1247 15.1319 12.8225 14.6765 12.8225 14.1797L12.8225 12.2752L10.5343 13.5586L10.5343 15.4631C10.5343 15.9599 10.7934 16.4153 11.2683 16.6637L16.2332 19.3961C16.6649 19.6445 17.2262 19.6445 17.7011 19.3961L22.666 16.6637C23.0978 16.4153 23.4 15.9599 23.4 15.4631L23.4 9.95682C23.4 9.45999 23.141 9.00461 22.666 8.75618L17.6579 5.98237Z" transform="translate(6.4000244 8.307617)" id="Shape" fill="#23292F" fill-rule="evenodd" stroke="none" />
  </g>
</svg>