<?xml version="1.0" encoding="utf-8"?>
<svg width="37px" height="37px" viewBox="0 0 37 37" version="1.1" xmlns:xlink="http://www.w3.org/1999/xlink" xmlns="http://www.w3.org/2000/svg">
  <defs>
    <path d="M0 0L37 0L37 37L0 37L0 0Z" id="path_1" />
    <clipPath id="mask_1">
      <use xlink:href="#path_1" />
    </clipPath>
  </defs>
  <g id="selected_r_sol">
    <path d="M0 0L37 0L37 37L0 37L0 0Z" id="Background" fill="none" fill-rule="evenodd" stroke="none" />
    <g clip-path="url(#mask_1)">
      <g id="Group-5-Copy-30" transform="translate(0.25 0.25)">
        <path d="M17.8651 36C27.7318 36 35.7303 27.9411 35.7303 18C35.7303 8.05887 27.7318 0 17.8651 0C7.9985 0 0 8.05887 0 18C0 27.9411 7.9985 36 17.8651 36L17.8651 36Z" id="Oval-5-Copy" fill="#00F3AB" fill-rule="evenodd" stroke="none" />
        <g id="Group-130" transform="translate(7.2002563 9.600098)">
          <path d="M3.65563 0L21.2399 0C21.2561 0 21.2722 0.00118732 21.2882 0.00356293C21.3042 0.00593853 21.3199 0.00947475 21.3355 0.0141745C21.3509 0.0188732 21.366 0.024684 21.3807 0.0316048C21.3953 0.0385265 21.4094 0.046484 21.4228 0.0554771C21.4363 0.0644712 21.4491 0.0744038 21.4611 0.0852757C21.4731 0.0961475 21.4842 0.107841 21.4945 0.120355C21.5047 0.132869 21.514 0.14607 21.5224 0.159956C21.5307 0.173842 21.538 0.188264 21.5442 0.203222C21.5504 0.218181 21.5554 0.233513 21.5594 0.249219C21.5633 0.264925 21.5661 0.280835 21.5677 0.29695C21.5693 0.313064 21.5697 0.329208 21.5689 0.345382C21.5681 0.361557 21.5661 0.377585 21.563 0.393469C21.5598 0.409353 21.5555 0.42492 21.5501 0.440171C21.5447 0.455421 21.5381 0.470189 21.5305 0.484476C21.5229 0.498762 21.5142 0.512412 21.5046 0.525426C21.495 0.53844 21.4844 0.550676 21.473 0.562136L17.841 4.2L0.329402 4.2C0.313279 4.2 0.297242 4.19882 0.281291 4.19647C0.26534 4.19411 0.249647 4.1906 0.234212 4.18595C0.218776 4.18129 0.203763 4.17553 0.189174 4.16866C0.174585 4.1618 0.160575 4.15391 0.147144 4.14498C0.133713 4.13606 0.121006 4.12621 0.109023 4.11542C0.0970392 4.10463 0.0859079 4.09303 0.0756283 4.08061C0.0653486 4.06819 0.0560312 4.05508 0.0476766 4.04129C0.0393214 4.0275 0.0320182 4.01318 0.0257668 3.99831C0.0195155 3.98345 0.0143828 3.96821 0.0103693 3.9526C0.00635576 3.93698 0.00350428 3.92115 0.00181437 3.90512C0.000124931 3.88909 -0.000384808 3.87301 0.000285625 3.8569C0.000956059 3.84079 0.00279903 3.82482 0.00581503 3.80898C0.0088315 3.79314 0.0129881 3.77761 0.0182848 3.76238C0.023582 3.74715 0.029963 3.73239 0.0374274 3.7181C0.0448918 3.70381 0.05336 3.69014 0.0628319 3.67709C0.0723038 3.66404 0.0826778 3.65176 0.0939536 3.64023L3.65563 0L3.65563 0Z" id="Rectangle-88" fill="#23292F" fill-rule="evenodd" stroke="none" />
          <path d="M3.65563 0L21.2399 0C21.2561 0 21.2722 0.00118828 21.2882 0.00356293C21.3042 0.00593758 21.3199 0.00947571 21.3355 0.0141735C21.3509 0.0188732 21.366 0.024683 21.3807 0.0316048C21.3953 0.0385265 21.4094 0.046484 21.4228 0.0554771C21.4363 0.0644703 21.4491 0.0744038 21.4611 0.0852757C21.4731 0.0961475 21.4842 0.10784 21.4945 0.120356C21.5047 0.13287 21.514 0.146069 21.5224 0.159956C21.5307 0.173841 21.538 0.188265 21.5442 0.203222C21.5504 0.218182 21.5554 0.233513 21.5594 0.24922C21.5633 0.264925 21.5661 0.280836 21.5677 0.296949C21.5693 0.313065 21.5697 0.329208 21.5689 0.345383C21.5681 0.361557 21.5661 0.377586 21.563 0.393469C21.5598 0.409353 21.5555 0.424921 21.5501 0.44017C21.5447 0.455421 21.5381 0.47019 21.5305 0.484476C21.5229 0.498762 21.5142 0.512411 21.5046 0.525427C21.495 0.538441 21.4844 0.550676 21.473 0.562136L17.841 4.2L0.329402 4.2C0.313279 4.2 0.297242 4.19882 0.281291 4.19647C0.26534 4.19411 0.249647 4.1906 0.234212 4.18595C0.218776 4.18129 0.203763 4.17553 0.189174 4.16866C0.174585 4.1618 0.160575 4.15391 0.147144 4.14498C0.133713 4.13606 0.121006 4.12621 0.109023 4.11542C0.0970392 4.10463 0.0859079 4.09303 0.0756283 4.08061C0.0653486 4.06819 0.0560312 4.05508 0.0476766 4.04129C0.0393214 4.0275 0.0320182 4.01318 0.0257668 3.99831C0.0195155 3.98345 0.0143828 3.96821 0.0103693 3.9526C0.00635576 3.93698 0.00350428 3.92115 0.00181437 3.90512C0.000124931 3.88909 -0.000384808 3.87301 0.000285625 3.8569C0.000956059 3.84079 0.00279903 3.82482 0.00581503 3.80898C0.0088315 3.79314 0.0129881 3.77761 0.0182848 3.76238C0.023582 3.74715 0.029963 3.73239 0.0374274 3.7181C0.0448918 3.70381 0.05336 3.69014 0.0628319 3.67709C0.0723038 3.66404 0.0826778 3.65176 0.0939536 3.64023L3.65563 0L3.65563 0Z" transform="translate(0 12.600098)" id="Rectangle-88-Copy" fill="#23292F" fill-rule="evenodd" stroke="none" />
          <path d="M17.9137 0L0.329399 0C0.3132 0 0.2971 0.00118828 0.281099 0.00356293C0.265099 0.00593758 0.249332 0.00947571 0.233799 0.0141735C0.218332 0.0188732 0.203266 0.024683 0.188601 0.0316048C0.173933 0.0385265 0.159899 0.046484 0.1465 0.0554771C0.132967 0.0644703 0.120199 0.0744038 0.1082 0.0852757C0.0962009 0.0961475 0.0850677 0.10784 0.0748005 0.120356C0.0645332 0.13287 0.055233 0.146069 0.0468998 0.159956C0.0385666 0.173841 0.0312996 0.188265 0.0250988 0.203222C0.0188999 0.218182 0.013834 0.233513 0.00989914 0.24922C0.00596619 0.264925 0.00320053 0.280836 0.00160027 0.296949C0 0.313065 -0.000400543 0.329208 0.000400543 0.345383C0.00119972 0.361557 0.0031662 0.377586 0.00629997 0.393469C0.00943375 0.409353 0.0137329 0.424921 0.0191994 0.44017C0.0245991 0.455421 0.0311336 0.47019 0.0387993 0.484476C0.0464001 0.498762 0.0550327 0.512411 0.0646992 0.525427C0.0742989 0.538441 0.0848331 0.550676 0.0963001 0.562136L3.7283 4.2L21.2399 4.2C21.256 4.2 21.272 4.19882 21.288 4.19647C21.3039 4.19411 21.3196 4.1906 21.3351 4.18595C21.3505 4.18129 21.3655 4.17553 21.3801 4.16866C21.3947 4.1618 21.4087 4.15391 21.4221 4.14498C21.4356 4.13606 21.4483 4.12621 21.4603 4.11542C21.4722 4.10463 21.4834 4.09303 21.4937 4.08061C21.5039 4.06819 21.5132 4.05508 21.5216 4.04129C21.53 4.0275 21.5373 4.01318 21.5435 3.99831C21.5498 3.98345 21.5549 3.96821 21.5589 3.9526C21.5629 3.93698 21.5658 3.92115 21.5675 3.90512C21.5692 3.88909 21.5697 3.87301 21.569 3.8569C21.5683 3.84079 21.5665 3.82482 21.5635 3.80898C21.5604 3.79314 21.5563 3.77761 21.551 3.76238C21.5457 3.74715 21.5393 3.73239 21.5319 3.7181C21.5244 3.70381 21.5159 3.69014 21.5064 3.67709C21.497 3.66404 21.4866 3.65176 21.4753 3.64023L17.9137 0L17.9137 0Z" transform="translate(0 6.3410645)" id="Rectangle-88-Copy-2" fill="#23292F" fill-rule="evenodd" stroke="none" />
        </g>
      </g>
    </g>
  </g>
</svg>