<?xml version="1.0" encoding="utf-8"?>
<svg width="37px" height="37px" viewBox="0 0 37 37" version="1.1" xmlns:xlink="http://www.w3.org/1999/xlink" xmlns="http://www.w3.org/2000/svg">
  <g id="Group-5-Copy-35" transform="translate(0.25 0.25)">
    <path d="M17.8651 36C27.7318 36 35.7303 27.9411 35.7303 18C35.7303 8.05887 27.7318 0 17.8651 0C7.9985 0 0 8.05887 0 18C0 27.9411 7.9985 36 17.8651 36Z" id="Oval-5-Copy" fill="#FFFFFF" fill-rule="evenodd" stroke="none" />
    <g id="Group-130" transform="translate(7.200012 9.600098)">
      <path d="M3.65425 -7.10543e-15L21.2385 -6.8255e-15Q21.2628 -6.82511e-15 21.2868 0.00356284Q21.3108 0.00712568 21.3341 0.0141743Q21.3573 0.0212229 21.3793 0.0316048Q21.4013 0.0419867 21.4214 0.0554773Q21.4417 0.068968 21.4597 0.0852754Q21.4777 0.101583 21.4931 0.120355Q21.5085 0.139126 21.521 0.159956Q21.5335 0.180785 21.5428 0.203222Q21.5521 0.22566 21.558 0.249219Q21.5639 0.272778 21.5663 0.29695Q21.5687 0.321121 21.5675 0.345382Q21.5663 0.369644 21.5616 0.393469Q21.5569 0.417295 21.5487 0.440171Q21.5406 0.463046 21.5291 0.484476Q21.5177 0.505905 21.5032 0.525426Q21.4888 0.544947 21.4716 0.562136L17.8396 4.2L0.328024 4.2Q0.303839 4.2 0.279913 4.19647Q0.255987 4.19293 0.232834 4.18595Q0.20968 4.17896 0.187796 4.16866Q0.165912 4.15837 0.145766 4.14498Q0.12562 4.1316 0.107645 4.11542Q0.0896694 4.09924 0.0742502 4.08061Q0.0588309 4.06198 0.0462983 4.04129Q0.0337658 4.02061 0.0243888 3.99831Q0.0150118 3.97602 0.00899144 3.9526Q0.00297109 3.92917 0.000436507 3.90512Q-0.00209807 3.88107 -0.00109252 3.8569Q-8.69673e-05 3.83274 0.00443715 3.80898Q0.00896127 3.78522 0.0169069 3.76238Q0.0248526 3.73954 0.0360493 3.7181Q0.0472461 3.69666 0.0614539 3.67709Q0.0756616 3.65752 0.0925756 3.64023L3.65425 -7.10543e-15Z" transform="translate(0.001645146 0)" id="Rectangle-88" fill="#23292F" fill-rule="evenodd" stroke="none" />
      <path d="M3.65425 -7.10543e-15L21.2385 -6.8255e-15Q21.2628 -6.82511e-15 21.2868 0.00356284Q21.3108 0.00712568 21.3341 0.0141743Q21.3573 0.0212229 21.3793 0.0316048Q21.4013 0.0419867 21.4214 0.0554773Q21.4417 0.068968 21.4597 0.0852754Q21.4777 0.101583 21.4931 0.120355Q21.5085 0.139126 21.521 0.159956Q21.5335 0.180785 21.5428 0.203222Q21.5521 0.22566 21.558 0.249219Q21.5639 0.272778 21.5663 0.29695Q21.5687 0.321121 21.5675 0.345382Q21.5663 0.369644 21.5616 0.393469Q21.5569 0.417295 21.5487 0.440171Q21.5406 0.463046 21.5291 0.484476Q21.5177 0.505905 21.5032 0.525426Q21.4888 0.544947 21.4716 0.562136L17.8396 4.2L0.328024 4.2Q0.303839 4.2 0.279913 4.19647Q0.255987 4.19293 0.232834 4.18595Q0.20968 4.17896 0.187796 4.16866Q0.165912 4.15837 0.145766 4.14498Q0.12562 4.1316 0.107645 4.11542Q0.0896694 4.09924 0.0742502 4.08061Q0.0588309 4.06198 0.0462983 4.04129Q0.0337658 4.02061 0.0243888 3.99831Q0.0150118 3.97602 0.00899144 3.9526Q0.00297109 3.92917 0.000436507 3.90512Q-0.00209807 3.88107 -0.00109252 3.8569Q-8.69673e-05 3.83274 0.00443715 3.80898Q0.00896127 3.78522 0.0169069 3.76238Q0.0248526 3.73954 0.0360493 3.7181Q0.0472461 3.69666 0.0614539 3.67709Q0.0756616 3.65752 0.0925756 3.64023L3.65425 -7.10543e-15Z" transform="translate(0.001645146 12.6)" id="Rectangle-88-Copy" fill="#23292F" fill-rule="evenodd" stroke="none" />
      <path d="M3.65425 -7.10543e-15L21.2385 -6.8255e-15Q21.2628 -6.82511e-15 21.2868 0.00356284Q21.3108 0.00712568 21.3341 0.0141743Q21.3573 0.0212229 21.3793 0.0316048Q21.4013 0.0419867 21.4214 0.0554773Q21.4417 0.068968 21.4597 0.0852754Q21.4777 0.101583 21.4931 0.120355Q21.5085 0.139126 21.521 0.159956Q21.5335 0.180785 21.5428 0.203222Q21.5521 0.22566 21.558 0.249219Q21.5639 0.272778 21.5663 0.29695Q21.5687 0.321121 21.5675 0.345382Q21.5663 0.369644 21.5616 0.393469Q21.5569 0.417295 21.5487 0.440171Q21.5406 0.463046 21.5291 0.484476Q21.5177 0.505905 21.5032 0.525426Q21.4888 0.544947 21.4716 0.562136L17.8396 4.2L0.328024 4.2Q0.303839 4.2 0.279913 4.19647Q0.255987 4.19293 0.232834 4.18595Q0.20968 4.17896 0.187796 4.16866Q0.165912 4.15837 0.145766 4.14498Q0.12562 4.1316 0.107645 4.11542Q0.0896694 4.09924 0.0742502 4.08061Q0.0588309 4.06198 0.0462983 4.04129Q0.0337658 4.02061 0.0243888 3.99831Q0.0150118 3.97602 0.00899144 3.9526Q0.00297109 3.92917 0.000436507 3.90512Q-0.00209807 3.88107 -0.00109252 3.8569Q-8.69673e-05 3.83274 0.00443715 3.80898Q0.00896127 3.78522 0.0169069 3.76238Q0.0248526 3.73954 0.0360493 3.7181Q0.0472461 3.69666 0.0614539 3.67709Q0.0756616 3.65752 0.0925756 3.64023L3.65425 -7.10543e-15Z" transform="matrix(-1 0 0 1 21.568174 6.3411765)" id="Rectangle-88-Copy-2" fill="#23292F" fill-rule="evenodd" stroke="none" />
    </g>
  </g>
</svg>